<?xml version="1.0" encoding="UTF-8" standalone="no"?>
<!DOCTYPE svg PUBLIC "-//W3C//DTD SVG 1.1//EN"
 "http://www.w3.org/Graphics/SVG/1.1/DTD/svg11.dtd">
<!-- Generated by graphviz version 2.42.3 (20191010.1750)
 -->
<!-- Title: finite_state_machine Pages: 1 -->
<svg width="681pt" height="369pt"
 viewBox="0.00 0.00 680.98 369.00" xmlns="http://www.w3.org/2000/svg" xmlns:xlink="http://www.w3.org/1999/xlink">
<g id="graph0" class="graph" transform="scale(1 1) rotate(0) translate(4 365)">
<title>finite_state_machine</title>
<polygon fill="white" stroke="transparent" points="-4,4 -4,-365 676.98,-365 676.98,4 -4,4"/>
<!-- 1000 -->
<g id="node1" class="node">
<title>1000</title>
<ellipse fill="none" stroke="black" cx="30.55" cy="-114" rx="30.59" ry="30.59"/>
<text text-anchor="middle" x="30.55" y="-110.3" font-family="Helvetica,Arial,sans-serif" font-size="14.00">1000</text>
</g>
<!-- 3 -->
<g id="node2" class="node">
<title>3</title>
<ellipse fill="none" stroke="black" cx="123.09" cy="-240" rx="18" ry="18"/>
<text text-anchor="middle" x="123.09" y="-236.3" font-family="Helvetica,Arial,sans-serif" font-size="14.00">3</text>
</g>
<!-- 1000&#45;&gt;3 -->
<g id="edge1" class="edge">
<title>1000&#45;&gt;3</title>
<path fill="none" stroke="black" d="M49.22,-138.59C65.67,-161.48 89.97,-195.3 105.92,-217.49"/>
<polygon fill="black" stroke="black" points="103.11,-219.59 111.79,-225.66 108.8,-215.5 103.11,-219.59"/>
<text text-anchor="middle" x="83.09" y="-192.8" font-family="Helvetica,Arial,sans-serif" font-size="14.00">1</text>
</g>
<!-- 0 -->
<g id="node3" class="node">
<title>0</title>
<ellipse fill="none" stroke="black" cx="469.89" cy="-175" rx="18" ry="18"/>
<text text-anchor="middle" x="469.89" y="-171.3" font-family="Helvetica,Arial,sans-serif" font-size="14.00">0</text>
</g>
<!-- 1000&#45;&gt;0 -->
<g id="edge2" class="edge">
<title>1000&#45;&gt;0</title>
<path fill="none" stroke="black" d="M61.32,-114C78.98,-114 101.82,-114 122.09,-114 122.09,-114 122.09,-114 378.34,-114 407.43,-114 434.19,-135.93 450.95,-153.49"/>
<polygon fill="black" stroke="black" points="448.61,-156.11 457.92,-161.16 453.79,-151.4 448.61,-156.11"/>
<text text-anchor="middle" x="244.79" y="-117.8" font-family="Helvetica,Arial,sans-serif" font-size="14.00">1</text>
</g>
<!-- 2 -->
<g id="node4" class="node">
<title>2</title>
<ellipse fill="none" stroke="black" cx="654.98" cy="-92" rx="18" ry="18"/>
<text text-anchor="middle" x="654.98" y="-88.3" font-family="Helvetica,Arial,sans-serif" font-size="14.00">2</text>
</g>
<!-- 1000&#45;&gt;2 -->
<g id="edge3" class="edge">
<title>1000&#45;&gt;2</title>
<path fill="none" stroke="black" d="M47.55,-88.27C63.46,-66.22 90.08,-38 122.09,-38 122.09,-38 122.09,-38 563.43,-38 590.96,-38 617.39,-56.64 634.52,-72.01"/>
<polygon fill="black" stroke="black" points="632.47,-74.89 642.14,-79.2 637.27,-69.8 632.47,-74.89"/>
<text text-anchor="middle" x="324.79" y="-41.8" font-family="Helvetica,Arial,sans-serif" font-size="14.00">0</text>
</g>
<!-- &#45;1 -->
<g id="node7" class="node">
<title>&#45;1</title>
<ellipse fill="none" stroke="black" cx="203.94" cy="-213" rx="18.7" ry="18.7"/>
<text text-anchor="middle" x="203.94" y="-209.3" font-family="Helvetica,Arial,sans-serif" font-size="14.00">&#45;1</text>
</g>
<!-- 3&#45;&gt;&#45;1 -->
<g id="edge20" class="edge">
<title>3&#45;&gt;&#45;1</title>
<path fill="none" stroke="black" d="M133.51,-225.24C139.68,-217.02 148.54,-207.55 159.09,-203 164.7,-200.59 170.97,-200.58 176.98,-201.73"/>
<polygon fill="black" stroke="black" points="176.09,-205.12 186.67,-204.55 178.04,-198.4 176.09,-205.12"/>
<text text-anchor="middle" x="163.09" y="-206.8" font-family="Helvetica,Arial,sans-serif" font-size="14.00">0</text>
</g>
<!-- 1003 -->
<g id="node9" class="node">
<title>1003</title>
<ellipse fill="none" stroke="black" cx="562.43" cy="-255" rx="30.59" ry="30.59"/>
<text text-anchor="middle" x="562.43" y="-251.3" font-family="Helvetica,Arial,sans-serif" font-size="14.00">1003</text>
</g>
<!-- 3&#45;&gt;1003 -->
<g id="edge19" class="edge">
<title>3&#45;&gt;1003</title>
<path fill="none" stroke="black" d="M132.85,-255.43C145.5,-275.49 170.95,-308 202.94,-308 202.94,-308 202.94,-308 470.89,-308 493.38,-308 515.24,-295.67 531.84,-282.9"/>
<polygon fill="black" stroke="black" points="534.47,-285.28 540.02,-276.25 530.06,-279.85 534.47,-285.28"/>
<text text-anchor="middle" x="324.79" y="-311.8" font-family="Helvetica,Arial,sans-serif" font-size="14.00">1</text>
</g>
<!-- 0&#45;&gt;1000 -->
<g id="edge13" class="edge">
<title>0&#45;&gt;1000</title>
<path fill="none" stroke="black" d="M452.84,-168.35C434.98,-161.55 405.1,-152 378.34,-152 122.09,-152 122.09,-152 122.09,-152 102.43,-152 82.1,-144.28 65.7,-135.81"/>
<polygon fill="black" stroke="black" points="66.98,-132.52 56.53,-130.78 63.62,-138.66 66.98,-132.52"/>
<text text-anchor="middle" x="244.79" y="-155.8" font-family="Helvetica,Arial,sans-serif" font-size="14.00">0</text>
</g>
<!-- 1001 -->
<g id="node5" class="node">
<title>1001</title>
<ellipse fill="none" stroke="black" cx="377.34" cy="-211" rx="30.59" ry="30.59"/>
<text text-anchor="middle" x="377.34" y="-207.3" font-family="Helvetica,Arial,sans-serif" font-size="14.00">1001</text>
</g>
<!-- 0&#45;&gt;1001 -->
<g id="edge14" class="edge">
<title>0&#45;&gt;1001</title>
<path fill="none" stroke="black" d="M451.75,-176.26C443.71,-177.23 434.11,-178.95 425.89,-182 421.02,-183.8 416.11,-186.12 411.38,-188.66"/>
<polygon fill="black" stroke="black" points="409.49,-185.71 402.58,-193.74 412.99,-191.77 409.49,-185.71"/>
<text text-anchor="middle" x="429.89" y="-185.8" font-family="Helvetica,Arial,sans-serif" font-size="14.00">0</text>
</g>
<!-- 1002 -->
<g id="node8" class="node">
<title>1002</title>
<ellipse fill="none" stroke="black" cx="562.43" cy="-141" rx="30.59" ry="30.59"/>
<text text-anchor="middle" x="562.43" y="-137.3" font-family="Helvetica,Arial,sans-serif" font-size="14.00">1002</text>
</g>
<!-- 0&#45;&gt;1002 -->
<g id="edge15" class="edge">
<title>0&#45;&gt;1002</title>
<path fill="none" stroke="black" d="M487.07,-168.92C497.37,-165.06 511.15,-159.88 524.04,-155.04"/>
<polygon fill="black" stroke="black" points="525.53,-158.22 533.66,-151.43 523.07,-151.67 525.53,-158.22"/>
<text text-anchor="middle" x="509.89" y="-165.8" font-family="Helvetica,Arial,sans-serif" font-size="14.00">0</text>
</g>
<!-- 0&#45;&gt;1003 -->
<g id="edge16" class="edge">
<title>0&#45;&gt;1003</title>
<path fill="none" stroke="black" d="M485.86,-183.47C494.44,-188.62 505.19,-195.62 513.89,-203 521.35,-209.34 528.8,-216.79 535.51,-224.05"/>
<polygon fill="black" stroke="black" points="533.17,-226.69 542.46,-231.79 538.38,-222.01 533.17,-226.69"/>
<text text-anchor="middle" x="509.89" y="-206.8" font-family="Helvetica,Arial,sans-serif" font-size="14.00">0</text>
</g>
<!-- 2&#45;&gt;1000 -->
<g id="edge10" class="edge">
<title>2&#45;&gt;1000</title>
<path fill="none" stroke="black" d="M646.93,-75.55C634.34,-49.09 605.34,0 563.43,0 122.09,0 122.09,0 122.09,0 82.64,0 57.64,-42.38 44.13,-75.46"/>
<polygon fill="black" stroke="black" points="40.81,-74.35 40.46,-84.94 47.34,-76.88 40.81,-74.35"/>
<text text-anchor="middle" x="324.79" y="-3.8" font-family="Helvetica,Arial,sans-serif" font-size="14.00">1</text>
</g>
<!-- 2&#45;&gt;&#45;1 -->
<g id="edge12" class="edge">
<title>2&#45;&gt;&#45;1</title>
<path fill="none" stroke="black" d="M637.45,-87.29C619.41,-82.57 589.61,-76 563.43,-76 283.79,-76 283.79,-76 283.79,-76 263.4,-76 254.71,-77.1 240.79,-92 217.29,-117.16 209.13,-157.02 206.34,-184.06"/>
<polygon fill="black" stroke="black" points="202.85,-183.82 205.48,-194.08 209.82,-184.42 202.85,-183.82"/>
<text text-anchor="middle" x="429.89" y="-79.8" font-family="Helvetica,Arial,sans-serif" font-size="14.00">0</text>
</g>
<!-- 2&#45;&gt;1002 -->
<g id="edge11" class="edge">
<title>2&#45;&gt;1002</title>
<path fill="none" stroke="black" d="M642.53,-105.51C636.2,-112.22 627.83,-119.95 618.98,-125 613.84,-127.93 608.13,-130.36 602.37,-132.36"/>
<polygon fill="black" stroke="black" points="601.26,-129.04 592.74,-135.34 603.33,-135.73 601.26,-129.04"/>
<text text-anchor="middle" x="614.98" y="-132.8" font-family="Helvetica,Arial,sans-serif" font-size="14.00">1</text>
</g>
<!-- 1001&#45;&gt;0 -->
<g id="edge4" class="edge">
<title>1001&#45;&gt;0</title>
<path fill="none" stroke="black" d="M407.91,-208.26C416.52,-206.78 425.79,-204.5 433.89,-201 438.8,-198.87 443.66,-195.94 448.14,-192.81"/>
<polygon fill="black" stroke="black" points="450.33,-195.54 456.16,-186.69 446.09,-189.97 450.33,-195.54"/>
<text text-anchor="middle" x="429.89" y="-207.8" font-family="Helvetica,Arial,sans-serif" font-size="14.00">1</text>
</g>
<!-- 1 -->
<g id="node6" class="node">
<title>1</title>
<ellipse fill="none" stroke="black" cx="284.79" cy="-211" rx="18" ry="18"/>
<text text-anchor="middle" x="284.79" y="-207.3" font-family="Helvetica,Arial,sans-serif" font-size="14.00">1</text>
</g>
<!-- 1001&#45;&gt;1 -->
<g id="edge5" class="edge">
<title>1001&#45;&gt;1</title>
<path fill="none" stroke="black" d="M351.19,-195.08C341.77,-190.95 330.9,-188.32 320.79,-191 316.61,-192.11 312.4,-193.85 308.43,-195.86"/>
<polygon fill="black" stroke="black" points="306.65,-192.84 299.7,-200.83 310.12,-198.92 306.65,-192.84"/>
<text text-anchor="middle" x="324.79" y="-194.8" font-family="Helvetica,Arial,sans-serif" font-size="14.00">0</text>
</g>
<!-- 1&#45;&gt;1001 -->
<g id="edge6" class="edge">
<title>1&#45;&gt;1001</title>
<path fill="none" stroke="black" d="M302.82,-211C312.33,-211 324.61,-211 336.4,-211"/>
<polygon fill="black" stroke="black" points="336.55,-214.5 346.55,-211 336.55,-207.5 336.55,-214.5"/>
<text text-anchor="middle" x="324.79" y="-214.8" font-family="Helvetica,Arial,sans-serif" font-size="14.00">1</text>
</g>
<!-- 1&#45;&gt;&#45;1 -->
<g id="edge7" class="edge">
<title>1&#45;&gt;&#45;1</title>
<path fill="none" stroke="black" d="M266.7,-211.51C261.01,-211.67 254.63,-211.85 248.79,-212 243.73,-212.13 238.34,-212.26 233.13,-212.38"/>
<polygon fill="black" stroke="black" points="232.78,-208.89 222.86,-212.61 232.94,-215.89 232.78,-208.89"/>
<text text-anchor="middle" x="244.79" y="-216.8" font-family="Helvetica,Arial,sans-serif" font-size="14.00">0</text>
</g>
<!-- &#45;1&#45;&gt;3 -->
<g id="edge23" class="edge">
<title>&#45;1&#45;&gt;3</title>
<path fill="none" stroke="black" d="M185.81,-218.87C175.39,-222.44 161.88,-227.06 150.15,-231.08"/>
<polygon fill="black" stroke="black" points="148.76,-227.85 140.43,-234.41 151.03,-234.48 148.76,-227.85"/>
<text text-anchor="middle" x="163.09" y="-231.8" font-family="Helvetica,Arial,sans-serif" font-size="14.00">1</text>
</g>
<!-- &#45;1&#45;&gt;2 -->
<g id="edge22" class="edge">
<title>&#45;1&#45;&gt;2</title>
<path fill="none" stroke="black" d="M207.28,-231.77C213,-268.44 231.31,-346 283.79,-346 283.79,-346 283.79,-346 563.43,-346 610.99,-346 640.1,-185.99 650.08,-119.97"/>
<polygon fill="black" stroke="black" points="653.58,-120.26 651.57,-109.86 646.65,-119.24 653.58,-120.26"/>
<text text-anchor="middle" x="429.89" y="-349.8" font-family="Helvetica,Arial,sans-serif" font-size="14.00">2</text>
</g>
<!-- &#45;1&#45;&gt;1 -->
<g id="edge21" class="edge">
<title>&#45;1&#45;&gt;1</title>
<path fill="none" stroke="black" d="M219.91,-202.41C226.08,-198.66 233.48,-194.9 240.79,-193 247.63,-191.22 254.81,-192.75 261.3,-195.54"/>
<polygon fill="black" stroke="black" points="259.72,-198.67 270.19,-200.29 263.02,-192.49 259.72,-198.67"/>
<text text-anchor="middle" x="244.79" y="-196.8" font-family="Helvetica,Arial,sans-serif" font-size="14.00">1</text>
</g>
<!-- 1002&#45;&gt;0 -->
<g id="edge8" class="edge">
<title>1002&#45;&gt;0</title>
<path fill="none" stroke="black" d="M535.13,-126.91C525.58,-123.69 514.93,-122.4 505.89,-127 496.33,-131.86 488.77,-140.68 483.15,-149.45"/>
<polygon fill="black" stroke="black" points="479.96,-147.98 478,-158.4 486.02,-151.47 479.96,-147.98"/>
<text text-anchor="middle" x="509.89" y="-130.8" font-family="Helvetica,Arial,sans-serif" font-size="14.00">1</text>
</g>
<!-- 1002&#45;&gt;2 -->
<g id="edge9" class="edge">
<title>1002&#45;&gt;2</title>
<path fill="none" stroke="black" d="M588.09,-123.72C595.3,-118.99 603.32,-114.06 610.98,-110 616.48,-107.09 622.55,-104.3 628.36,-101.83"/>
<polygon fill="black" stroke="black" points="629.8,-105.02 637.73,-97.99 627.15,-98.54 629.8,-105.02"/>
<text text-anchor="middle" x="614.98" y="-113.8" font-family="Helvetica,Arial,sans-serif" font-size="14.00">0</text>
</g>
<!-- 1003&#45;&gt;3 -->
<g id="edge18" class="edge">
<title>1003&#45;&gt;3</title>
<path fill="none" stroke="black" d="M532.68,-262.24C514.98,-266.07 491.76,-270 470.89,-270 202.94,-270 202.94,-270 202.94,-270 183.6,-270 163.23,-262.02 148.04,-254.28"/>
<polygon fill="black" stroke="black" points="149.33,-251 138.87,-249.33 146,-257.16 149.33,-251"/>
<text text-anchor="middle" x="324.79" y="-273.8" font-family="Helvetica,Arial,sans-serif" font-size="14.00">0</text>
</g>
<!-- 1003&#45;&gt;0 -->
<g id="edge17" class="edge">
<title>1003&#45;&gt;0</title>
<path fill="none" stroke="black" d="M535.65,-240.11C525.85,-233.88 514.89,-226.18 505.89,-218 499.27,-211.99 492.86,-204.69 487.36,-197.82"/>
<polygon fill="black" stroke="black" points="489.82,-195.27 480.95,-189.48 484.27,-199.54 489.82,-195.27"/>
<text text-anchor="middle" x="509.89" y="-227.8" font-family="Helvetica,Arial,sans-serif" font-size="14.00">1</text>
</g>
</g>
</svg>
