<?xml version="1.0" encoding="UTF-8" standalone="no"?>
<!DOCTYPE svg PUBLIC "-//W3C//DTD SVG 1.1//EN"
 "http://www.w3.org/Graphics/SVG/1.1/DTD/svg11.dtd">
<!-- Generated by graphviz version 2.50.0 (20220216.1147)
 -->
<!-- Title: finite_state_machine Pages: 1 -->
<svg width="700pt" height="413pt"
 viewBox="0.00 0.00 699.68 413.00" xmlns="http://www.w3.org/2000/svg" xmlns:xlink="http://www.w3.org/1999/xlink">
<g id="graph0" class="graph" transform="scale(1 1) rotate(0) translate(4 409)">
<title>finite_state_machine</title>
<polygon fill="white" stroke="transparent" points="-4,4 -4,-409 695.68,-409 695.68,4 -4,4"/>
<!-- 1000 -->
<g id="node1" class="node">
<title>1000</title>
<ellipse fill="none" stroke="black" cx="32.5" cy="-76" rx="32.49" ry="32.49"/>
<text text-anchor="middle" x="32.5" y="-72.3" font-family="Helvetica,Arial,sans-serif" font-size="14.00">1000</text>
</g>
<!-- 3 -->
<g id="node2" class="node">
<title>3</title>
<ellipse fill="none" stroke="black" cx="127.99" cy="-284" rx="18" ry="18"/>
<text text-anchor="middle" x="127.99" y="-280.3" font-family="Helvetica,Arial,sans-serif" font-size="14.00">3</text>
</g>
<!-- 1000&#45;&gt;3 -->
<g id="edge1" class="edge">
<title>1000&#45;&gt;3</title>
<path fill="none" stroke="black" d="M46.69,-105.36C65.04,-146.17 97.95,-219.39 115.4,-258.21"/>
<polygon fill="black" stroke="black" points="112.39,-260.05 119.69,-267.74 118.78,-257.18 112.39,-260.05"/>
<text text-anchor="middle" x="87.49" y="-208.8" font-family="Helvetica,Arial,sans-serif" font-size="14.00">1</text>
</g>
<!-- 0 -->
<g id="node3" class="node">
<title>0</title>
<ellipse fill="none" stroke="black" cx="482.69" cy="-184" rx="18" ry="18"/>
<text text-anchor="middle" x="482.69" y="-180.3" font-family="Helvetica,Arial,sans-serif" font-size="14.00">0</text>
</g>
<!-- 1000&#45;&gt;0 -->
<g id="edge2" class="edge">
<title>1000&#45;&gt;0</title>
<path fill="none" stroke="black" d="M65.09,-76C83.21,-76 106.38,-76 126.99,-76 126.99,-76 126.99,-76 388.19,-76 416.29,-76 426.76,-80.18 446.69,-100 462.11,-115.34 471.07,-138.49 476.06,-156.61"/>
<polygon fill="black" stroke="black" points="472.67,-157.48 478.49,-166.33 479.46,-155.78 472.67,-157.48"/>
<text text-anchor="middle" x="251.19" y="-79.8" font-family="Helvetica,Arial,sans-serif" font-size="14.00">1</text>
</g>
<!-- 2 -->
<g id="node4" class="node">
<title>2</title>
<ellipse fill="none" stroke="black" cx="673.68" cy="-128" rx="18" ry="18"/>
<text text-anchor="middle" x="673.68" y="-124.3" font-family="Helvetica,Arial,sans-serif" font-size="14.00">2</text>
</g>
<!-- 1000&#45;&gt;2 -->
<g id="edge3" class="edge">
<title>1000&#45;&gt;2</title>
<path fill="none" stroke="black" d="M60.16,-58.78C78.27,-48.72 103.16,-38 126.99,-38 126.99,-38 126.99,-38 579.18,-38 616.87,-38 645.23,-76.43 660.35,-103.06"/>
<polygon fill="black" stroke="black" points="657.31,-104.78 665.15,-111.91 663.46,-101.45 657.31,-104.78"/>
<text text-anchor="middle" x="332.19" y="-41.8" font-family="Helvetica,Arial,sans-serif" font-size="14.00">0</text>
</g>
<!-- &#45;1 -->
<g id="node7" class="node">
<title>&#45;1</title>
<ellipse fill="none" stroke="black" cx="209.84" cy="-256" rx="18.7" ry="18.7"/>
<text text-anchor="middle" x="209.84" y="-252.3" font-family="Helvetica,Arial,sans-serif" font-size="14.00">&#45;1</text>
</g>
<!-- 3&#45;&gt;&#45;1 -->
<g id="edge21" class="edge">
<title>3&#45;&gt;&#45;1</title>
<path fill="none" stroke="black" d="M145.15,-278.33C155.76,-274.61 169.89,-269.66 182.15,-265.36"/>
<polygon fill="black" stroke="black" points="183.6,-268.56 191.88,-261.95 181.29,-261.95 183.6,-268.56"/>
<text text-anchor="middle" x="168.49" y="-274.8" font-family="Helvetica,Arial,sans-serif" font-size="14.00">0</text>
</g>
<!-- 1003 -->
<g id="node9" class="node">
<title>1003</title>
<ellipse fill="none" stroke="black" cx="578.18" cy="-289" rx="32.49" ry="32.49"/>
<text text-anchor="middle" x="578.18" y="-285.3" font-family="Helvetica,Arial,sans-serif" font-size="14.00">1003</text>
</g>
<!-- 3&#45;&gt;1003 -->
<g id="edge20" class="edge">
<title>3&#45;&gt;1003</title>
<path fill="none" stroke="black" d="M133.45,-301.5C142.29,-331.61 165.07,-390 208.84,-390 208.84,-390 208.84,-390 483.69,-390 519.05,-390 544.77,-356.25 560.18,-327.77"/>
<polygon fill="black" stroke="black" points="563.35,-329.25 564.82,-318.76 557.13,-326.05 563.35,-329.25"/>
<text text-anchor="middle" x="332.19" y="-393.8" font-family="Helvetica,Arial,sans-serif" font-size="14.00">1</text>
</g>
<!-- 0&#45;&gt;1000 -->
<g id="edge13" class="edge">
<title>0&#45;&gt;1000</title>
<path fill="none" stroke="black" d="M475.38,-167.28C469.75,-154.61 460.27,-137.77 446.69,-128 424.98,-112.39 414.92,-114 388.19,-114 126.99,-114 126.99,-114 126.99,-114 106.89,-114 86.02,-106.36 69.12,-97.94"/>
<polygon fill="black" stroke="black" points="70.64,-94.79 60.16,-93.22 67.38,-100.98 70.64,-94.79"/>
<text text-anchor="middle" x="251.19" y="-117.8" font-family="Helvetica,Arial,sans-serif" font-size="14.00">0</text>
</g>
<!-- 1001 -->
<g id="node5" class="node">
<title>1001</title>
<ellipse fill="none" stroke="black" cx="387.19" cy="-215" rx="32.49" ry="32.49"/>
<text text-anchor="middle" x="387.19" y="-211.3" font-family="Helvetica,Arial,sans-serif" font-size="14.00">1001</text>
</g>
<!-- 0&#45;&gt;1001 -->
<g id="edge14" class="edge">
<title>0&#45;&gt;1001</title>
<path fill="none" stroke="black" d="M466.32,-192.36C460.32,-195.38 453.3,-198.63 446.69,-201 441.08,-203.01 435.07,-204.81 429.11,-206.41"/>
<polygon fill="black" stroke="black" points="428.06,-203.06 419.22,-208.9 429.77,-209.85 428.06,-203.06"/>
<text text-anchor="middle" x="442.19" y="-207.8" font-family="Helvetica,Arial,sans-serif" font-size="14.00">0</text>
</g>
<!-- 1002 -->
<g id="node8" class="node">
<title>1002</title>
<ellipse fill="none" stroke="black" cx="578.18" cy="-178" rx="32.49" ry="32.49"/>
<text text-anchor="middle" x="578.18" y="-174.3" font-family="Helvetica,Arial,sans-serif" font-size="14.00">1002</text>
</g>
<!-- 0&#45;&gt;1002 -->
<g id="edge15" class="edge">
<title>0&#45;&gt;1002</title>
<path fill="none" stroke="black" d="M497.52,-173.33C503.65,-169.25 511.17,-165.08 518.69,-163 525.05,-161.24 531.83,-161.25 538.42,-162.27"/>
<polygon fill="black" stroke="black" points="538.03,-165.77 548.56,-164.6 539.6,-158.95 538.03,-165.77"/>
<text text-anchor="middle" x="523.19" y="-166.8" font-family="Helvetica,Arial,sans-serif" font-size="14.00">0</text>
</g>
<!-- 0&#45;&gt;1003 -->
<g id="edge16" class="edge">
<title>0&#45;&gt;1003</title>
<path fill="none" stroke="black" d="M497.48,-194.58C506.52,-201.84 518.35,-211.93 527.69,-222 536.76,-231.79 545.73,-243.24 553.48,-253.87"/>
<polygon fill="black" stroke="black" points="550.76,-256.07 559.42,-262.17 556.45,-252 550.76,-256.07"/>
<text text-anchor="middle" x="523.19" y="-225.8" font-family="Helvetica,Arial,sans-serif" font-size="14.00">0</text>
</g>
<!-- 2&#45;&gt;1000 -->
<g id="edge10" class="edge">
<title>2&#45;&gt;1000</title>
<path fill="none" stroke="black" d="M668.64,-110.47C659.41,-75.41 633.26,0 579.18,0 126.99,0 126.99,0 126.99,0 98.74,0 74.27,-21.16 57.46,-41.15"/>
<polygon fill="black" stroke="black" points="54.7,-39 51.18,-48.99 60.16,-43.37 54.7,-39"/>
<text text-anchor="middle" x="332.19" y="-3.8" font-family="Helvetica,Arial,sans-serif" font-size="14.00">1</text>
</g>
<!-- 2&#45;&gt;&#45;1 -->
<g id="edge12" class="edge">
<title>2&#45;&gt;&#45;1</title>
<path fill="none" stroke="black" d="M655.54,-128.05C606.86,-128.69 464.24,-134.11 354.69,-174 309.31,-190.53 261.54,-220.68 234.06,-239.45"/>
<polygon fill="black" stroke="black" points="231.78,-236.78 225.55,-245.35 235.76,-242.53 231.78,-236.78"/>
<text text-anchor="middle" x="442.19" y="-154.8" font-family="Helvetica,Arial,sans-serif" font-size="14.00">0</text>
</g>
<!-- 2&#45;&gt;1002 -->
<g id="edge11" class="edge">
<title>2&#45;&gt;1002</title>
<path fill="none" stroke="black" d="M655.89,-131.98C647.47,-134.31 637.26,-137.66 628.68,-142 623.08,-144.83 617.43,-148.28 612.05,-151.9"/>
<polygon fill="black" stroke="black" points="610.02,-149.04 603.86,-157.67 614.05,-154.76 610.02,-149.04"/>
<text text-anchor="middle" x="633.18" y="-145.8" font-family="Helvetica,Arial,sans-serif" font-size="14.00">1</text>
</g>
<!-- 1001&#45;&gt;0 -->
<g id="edge4" class="edge">
<title>1001&#45;&gt;0</title>
<path fill="none" stroke="black" d="M414.07,-196.68C421.38,-192.41 429.57,-188.4 437.69,-186 442.96,-184.44 448.74,-183.6 454.33,-183.19"/>
<polygon fill="black" stroke="black" points="454.76,-186.68 464.66,-182.88 454.55,-179.69 454.76,-186.68"/>
<text text-anchor="middle" x="442.19" y="-189.8" font-family="Helvetica,Arial,sans-serif" font-size="14.00">1</text>
</g>
<!-- 1 -->
<g id="node6" class="node">
<title>1</title>
<ellipse fill="none" stroke="black" cx="291.69" cy="-246" rx="18" ry="18"/>
<text text-anchor="middle" x="291.69" y="-242.3" font-family="Helvetica,Arial,sans-serif" font-size="14.00">1</text>
</g>
<!-- 1001&#45;&gt;1 -->
<g id="edge5" class="edge">
<title>1001&#45;&gt;1</title>
<path fill="none" stroke="black" d="M356.12,-224.97C344.02,-228.98 330.2,-233.56 318.55,-237.43"/>
<polygon fill="black" stroke="black" points="317.37,-234.13 308.98,-240.6 319.57,-240.78 317.37,-234.13"/>
<text text-anchor="middle" x="332.19" y="-237.8" font-family="Helvetica,Arial,sans-serif" font-size="14.00">0</text>
</g>
<!-- 1&#45;&gt;1001 -->
<g id="edge6" class="edge">
<title>1&#45;&gt;1001</title>
<path fill="none" stroke="black" d="M302.95,-231.71C309.17,-224.31 317.8,-216.01 327.69,-212 333.18,-209.77 339.21,-208.71 345.24,-208.41"/>
<polygon fill="black" stroke="black" points="345.25,-211.91 355.3,-208.53 345.34,-204.91 345.25,-211.91"/>
<text text-anchor="middle" x="332.19" y="-215.8" font-family="Helvetica,Arial,sans-serif" font-size="14.00">1</text>
</g>
<!-- 1&#45;&gt;&#45;1 -->
<g id="edge7" class="edge">
<title>1&#45;&gt;&#45;1</title>
<path fill="none" stroke="black" d="M275.51,-254.66C269.53,-257.6 262.48,-260.52 255.69,-262 250.13,-263.21 244.12,-263.26 238.36,-262.7"/>
<polygon fill="black" stroke="black" points="238.84,-259.23 228.42,-261.16 237.77,-266.15 238.84,-259.23"/>
<text text-anchor="middle" x="251.19" y="-266.8" font-family="Helvetica,Arial,sans-serif" font-size="14.00">0</text>
</g>
<!-- &#45;1&#45;&gt;3 -->
<g id="edge24" class="edge">
<title>&#45;1&#45;&gt;3</title>
<path fill="none" stroke="black" d="M191.71,-249.72C183.13,-247.55 172.73,-246.46 163.99,-250 157.35,-252.7 151.27,-257.33 146.11,-262.32"/>
<polygon fill="black" stroke="black" points="143.49,-260 139.25,-269.71 148.62,-264.76 143.49,-260"/>
<text text-anchor="middle" x="168.49" y="-253.8" font-family="Helvetica,Arial,sans-serif" font-size="14.00">1</text>
</g>
<!-- &#45;1&#45;&gt;2 -->
<g id="edge23" class="edge">
<title>&#45;1&#45;&gt;2</title>
<path fill="none" stroke="black" d="M216.61,-274.06C226.75,-301.87 250.59,-352 290.69,-352 290.69,-352 290.69,-352 579.18,-352 662.89,-352 672.99,-217.14 673.31,-156.7"/>
<polygon fill="black" stroke="black" points="676.81,-156.32 673.27,-146.33 669.81,-156.34 676.81,-156.32"/>
<text text-anchor="middle" x="442.19" y="-355.8" font-family="Helvetica,Arial,sans-serif" font-size="14.00">2</text>
</g>
<!-- &#45;1&#45;&gt;1 -->
<g id="edge22" class="edge">
<title>&#45;1&#45;&gt;1</title>
<path fill="none" stroke="black" d="M227.29,-248.68C233.27,-246.38 240.17,-244.15 246.69,-243 252.11,-242.05 257.96,-241.87 263.57,-242.1"/>
<polygon fill="black" stroke="black" points="263.62,-245.62 273.88,-242.96 264.2,-238.64 263.62,-245.62"/>
<text text-anchor="middle" x="251.19" y="-246.8" font-family="Helvetica,Arial,sans-serif" font-size="14.00">1</text>
</g>
<!-- 1002&#45;&gt;0 -->
<g id="edge8" class="edge">
<title>1002&#45;&gt;0</title>
<path fill="none" stroke="black" d="M545.39,-180.04C534.2,-180.76 521.73,-181.56 510.95,-182.25"/>
<polygon fill="black" stroke="black" points="510.59,-178.77 500.83,-182.9 511.04,-185.75 510.59,-178.77"/>
<text text-anchor="middle" x="523.19" y="-185.8" font-family="Helvetica,Arial,sans-serif" font-size="14.00">1</text>
</g>
<!-- 1002&#45;&gt;2 -->
<g id="edge9" class="edge">
<title>1002&#45;&gt;2</title>
<path fill="none" stroke="black" d="M610.35,-171.87C619.52,-169.31 629.32,-165.78 637.68,-161 643.48,-157.68 649.08,-153.21 654.03,-148.63"/>
<polygon fill="black" stroke="black" points="656.59,-151.03 661.22,-141.5 651.66,-146.06 656.59,-151.03"/>
<text text-anchor="middle" x="633.18" y="-169.8" font-family="Helvetica,Arial,sans-serif" font-size="14.00">0</text>
</g>
<!-- 1003&#45;&gt;3 -->
<g id="edge19" class="edge">
<title>1003&#45;&gt;3</title>
<path fill="none" stroke="black" d="M547.82,-301.06C529.66,-307.45 505.7,-314 483.69,-314 208.84,-314 208.84,-314 208.84,-314 188.98,-314 168,-305.76 152.54,-297.92"/>
<polygon fill="black" stroke="black" points="154.15,-294.81 143.68,-293.16 150.84,-300.98 154.15,-294.81"/>
<text text-anchor="middle" x="332.19" y="-317.8" font-family="Helvetica,Arial,sans-serif" font-size="14.00">0</text>
</g>
<!-- 1003&#45;&gt;0 -->
<g id="edge18" class="edge">
<title>1003&#45;&gt;0</title>
<path fill="none" stroke="black" d="M552.23,-269.31C541.31,-260.1 528.74,-248.61 518.69,-237 511.03,-228.16 503.7,-217.54 497.75,-208.14"/>
<polygon fill="black" stroke="black" points="500.72,-206.29 492.51,-199.6 494.76,-209.95 500.72,-206.29"/>
<text text-anchor="middle" x="523.19" y="-249.8" font-family="Helvetica,Arial,sans-serif" font-size="14.00">1</text>
</g>
<!-- 1003&#45;&gt;1 -->
<g id="edge17" class="edge">
<title>1003&#45;&gt;1</title>
<path fill="none" stroke="black" d="M545.59,-285C498.15,-278.86 405.76,-266.43 327.69,-253 324.98,-252.53 322.15,-252.02 319.34,-251.49"/>
<polygon fill="black" stroke="black" points="319.88,-248.02 309.39,-249.53 318.53,-254.89 319.88,-248.02"/>
<text text-anchor="middle" x="442.19" y="-274.8" font-family="Helvetica,Arial,sans-serif" font-size="14.00">1</text>
</g>
</g>
</svg>
