<?xml version="1.0" encoding="UTF-8" standalone="no"?>
<!DOCTYPE svg PUBLIC "-//W3C//DTD SVG 1.1//EN"
 "http://www.w3.org/Graphics/SVG/1.1/DTD/svg11.dtd">
<!-- Generated by graphviz version 2.50.0 (20220216.1147)
 -->
<!-- Title: finite_state_machine Pages: 1 -->
<svg width="318pt" height="322pt"
 viewBox="0.00 0.00 317.69 321.99" xmlns="http://www.w3.org/2000/svg" xmlns:xlink="http://www.w3.org/1999/xlink">
<g id="graph0" class="graph" transform="scale(1 1) rotate(0) translate(4 317.99)">
<title>finite_state_machine</title>
<polygon fill="white" stroke="transparent" points="-4,4 -4,-317.99 313.69,-317.99 313.69,4 -4,4"/>
<!-- 1003 -->
<g id="node1" class="node">
<title>1003</title>
<ellipse fill="none" stroke="black" cx="113.5" cy="-198.5" rx="32.49" ry="32.49"/>
<text text-anchor="middle" x="113.5" y="-194.8" font-family="Helvetica,Arial,sans-serif" font-size="14.00">1003</text>
</g>
<!-- 1 -->
<g id="node2" class="node">
<title>1</title>
<ellipse fill="none" stroke="black" cx="208.99" cy="-209.5" rx="18" ry="18"/>
<text text-anchor="middle" x="208.99" y="-205.8" font-family="Helvetica,Arial,sans-serif" font-size="14.00">1</text>
</g>
<!-- 1003&#45;&gt;1 -->
<g id="edge1" class="edge">
<title>1003&#45;&gt;1</title>
<path fill="none" stroke="black" d="M145.89,-202.19C157.19,-203.52 169.84,-205.01 180.75,-206.29"/>
<polygon fill="black" stroke="black" points="180.64,-209.8 190.98,-207.5 181.46,-202.85 180.64,-209.8"/>
<text text-anchor="middle" x="168.49" y="-208.3" font-family="Helvetica,Arial,sans-serif" font-size="14.00">1</text>
</g>
<!-- 3 -->
<g id="node3" class="node">
<title>3</title>
<ellipse fill="none" stroke="black" cx="208.99" cy="-152.5" rx="18" ry="18"/>
<text text-anchor="middle" x="208.99" y="-148.8" font-family="Helvetica,Arial,sans-serif" font-size="14.00">3</text>
</g>
<!-- 1003&#45;&gt;3 -->
<g id="edge2" class="edge">
<title>1003&#45;&gt;3</title>
<path fill="none" stroke="black" d="M143.06,-184.45C155.94,-178.11 171,-170.7 183.38,-164.61"/>
<polygon fill="black" stroke="black" points="185.21,-167.61 192.63,-160.05 182.12,-161.33 185.21,-167.61"/>
<text text-anchor="middle" x="168.49" y="-178.3" font-family="Helvetica,Arial,sans-serif" font-size="14.00">1</text>
</g>
<!-- &#45;1 -->
<g id="node9" class="node">
<title>&#45;1</title>
<ellipse fill="none" stroke="black" cx="290.84" cy="-152.5" rx="18.7" ry="18.7"/>
<text text-anchor="middle" x="290.84" y="-148.8" font-family="Helvetica,Arial,sans-serif" font-size="14.00">&#45;1</text>
</g>
<!-- 1&#45;&gt;&#45;1 -->
<g id="edge13" class="edge">
<title>1&#45;&gt;&#45;1</title>
<path fill="none" stroke="black" d="M224.27,-199.31C236.04,-190.9 252.98,-178.81 266.69,-169.02"/>
<polygon fill="black" stroke="black" points="269.05,-171.64 275.15,-162.98 264.98,-165.95 269.05,-171.64"/>
<text text-anchor="middle" x="249.49" y="-188.3" font-family="Helvetica,Arial,sans-serif" font-size="14.00">1</text>
</g>
<!-- 3&#45;&gt;&#45;1 -->
<g id="edge11" class="edge">
<title>3&#45;&gt;&#45;1</title>
<path fill="none" stroke="black" d="M227.32,-152.5C237.36,-152.5 250.25,-152.5 261.72,-152.5"/>
<polygon fill="black" stroke="black" points="261.72,-156 271.72,-152.5 261.72,-149 261.72,-156"/>
<text text-anchor="middle" x="249.49" y="-156.3" font-family="Helvetica,Arial,sans-serif" font-size="14.00">1</text>
</g>
<!-- 0 -->
<g id="node4" class="node">
<title>0</title>
<ellipse fill="none" stroke="black" cx="18" cy="-145.5" rx="18" ry="18"/>
<text text-anchor="middle" x="18" y="-141.8" font-family="Helvetica,Arial,sans-serif" font-size="14.00">0</text>
</g>
<!-- 0&#45;&gt;1003 -->
<g id="edge3" class="edge">
<title>0&#45;&gt;1003</title>
<path fill="none" stroke="black" d="M34.02,-154.01C45.31,-160.41 61.26,-169.45 75.84,-177.72"/>
<polygon fill="black" stroke="black" points="74.26,-180.85 84.69,-182.73 77.72,-174.76 74.26,-180.85"/>
<text text-anchor="middle" x="58.5" y="-174.3" font-family="Helvetica,Arial,sans-serif" font-size="14.00">1</text>
</g>
<!-- 1002 -->
<g id="node5" class="node">
<title>1002</title>
<ellipse fill="none" stroke="black" cx="113.5" cy="-32.5" rx="32.49" ry="32.49"/>
<text text-anchor="middle" x="113.5" y="-28.8" font-family="Helvetica,Arial,sans-serif" font-size="14.00">1002</text>
</g>
<!-- 0&#45;&gt;1002 -->
<g id="edge4" class="edge">
<title>0&#45;&gt;1002</title>
<path fill="none" stroke="black" d="M30.09,-132.09C43.62,-115.74 66.95,-87.54 85.35,-65.31"/>
<polygon fill="black" stroke="black" points="88.19,-67.36 91.87,-57.42 82.8,-62.9 88.19,-67.36"/>
<text text-anchor="middle" x="58.5" y="-106.3" font-family="Helvetica,Arial,sans-serif" font-size="14.00">1</text>
</g>
<!-- 1001 -->
<g id="node6" class="node">
<title>1001</title>
<ellipse fill="none" stroke="black" cx="113.5" cy="-281.5" rx="32.49" ry="32.49"/>
<text text-anchor="middle" x="113.5" y="-277.8" font-family="Helvetica,Arial,sans-serif" font-size="14.00">1001</text>
</g>
<!-- 0&#45;&gt;1001 -->
<g id="edge5" class="edge">
<title>0&#45;&gt;1001</title>
<path fill="none" stroke="black" d="M28.39,-160.34C40.31,-179.02 61.65,-212 81,-239.5 82.89,-242.18 84.87,-244.94 86.88,-247.7"/>
<polygon fill="black" stroke="black" points="84.18,-249.94 92.93,-255.91 89.81,-245.78 84.18,-249.94"/>
<text text-anchor="middle" x="58.5" y="-214.3" font-family="Helvetica,Arial,sans-serif" font-size="14.00">1</text>
</g>
<!-- 1000 -->
<g id="node7" class="node">
<title>1000</title>
<ellipse fill="none" stroke="black" cx="113.5" cy="-115.5" rx="32.49" ry="32.49"/>
<text text-anchor="middle" x="113.5" y="-111.8" font-family="Helvetica,Arial,sans-serif" font-size="14.00">1000</text>
</g>
<!-- 0&#45;&gt;1000 -->
<g id="edge6" class="edge">
<title>0&#45;&gt;1000</title>
<path fill="none" stroke="black" d="M35.29,-140.27C45.63,-136.95 59.49,-132.51 72.61,-128.3"/>
<polygon fill="black" stroke="black" points="73.98,-131.53 82.43,-125.14 71.84,-124.87 73.98,-131.53"/>
<text text-anchor="middle" x="58.5" y="-138.3" font-family="Helvetica,Arial,sans-serif" font-size="14.00">1</text>
</g>
<!-- 2 -->
<g id="node8" class="node">
<title>2</title>
<ellipse fill="none" stroke="black" cx="208.99" cy="-95.5" rx="18" ry="18"/>
<text text-anchor="middle" x="208.99" y="-91.8" font-family="Helvetica,Arial,sans-serif" font-size="14.00">2</text>
</g>
<!-- 1002&#45;&gt;2 -->
<g id="edge7" class="edge">
<title>1002&#45;&gt;2</title>
<path fill="none" stroke="black" d="M141.04,-50.38C154.9,-59.72 171.7,-71.04 185,-80"/>
<polygon fill="black" stroke="black" points="183.32,-83.09 193.57,-85.78 187.23,-77.29 183.32,-83.09"/>
<text text-anchor="middle" x="168.49" y="-75.3" font-family="Helvetica,Arial,sans-serif" font-size="14.00">1</text>
</g>
<!-- 1001&#45;&gt;1 -->
<g id="edge8" class="edge">
<title>1001&#45;&gt;1</title>
<path fill="none" stroke="black" d="M140.05,-261.82C154.55,-250.65 172.52,-236.82 186.33,-226.18"/>
<polygon fill="black" stroke="black" points="188.54,-228.9 194.32,-220.02 184.27,-223.35 188.54,-228.9"/>
<text text-anchor="middle" x="168.49" y="-246.3" font-family="Helvetica,Arial,sans-serif" font-size="14.00">1</text>
</g>
<!-- 1000&#45;&gt;3 -->
<g id="edge9" class="edge">
<title>1000&#45;&gt;3</title>
<path fill="none" stroke="black" d="M144.89,-124.35C154.04,-127.28 164.02,-130.76 172.99,-134.5 176.55,-135.98 180.23,-137.68 183.81,-139.43"/>
<polygon fill="black" stroke="black" points="182.42,-142.64 192.91,-144.07 185.6,-136.41 182.42,-142.64"/>
<text text-anchor="middle" x="168.49" y="-138.3" font-family="Helvetica,Arial,sans-serif" font-size="14.00">1</text>
</g>
<!-- 1000&#45;&gt;2 -->
<g id="edge10" class="edge">
<title>1000&#45;&gt;2</title>
<path fill="none" stroke="black" d="M143.32,-102.53C149.98,-100.07 157.13,-97.85 163.99,-96.5 169.29,-95.45 175.02,-94.91 180.54,-94.67"/>
<polygon fill="black" stroke="black" points="180.76,-98.17 190.71,-94.53 180.66,-91.17 180.76,-98.17"/>
<text text-anchor="middle" x="168.49" y="-100.3" font-family="Helvetica,Arial,sans-serif" font-size="14.00">1</text>
</g>
<!-- 2&#45;&gt;&#45;1 -->
<g id="edge12" class="edge">
<title>2&#45;&gt;&#45;1</title>
<path fill="none" stroke="black" d="M224.27,-105.69C236.04,-114.09 252.98,-126.18 266.69,-135.97"/>
<polygon fill="black" stroke="black" points="264.98,-139.05 275.15,-142.01 269.05,-133.35 264.98,-139.05"/>
<text text-anchor="middle" x="249.49" y="-130.3" font-family="Helvetica,Arial,sans-serif" font-size="14.00">2</text>
</g>
</g>
</svg>
