<?xml version="1.0" encoding="UTF-8" standalone="no"?>
<!DOCTYPE svg PUBLIC "-//W3C//DTD SVG 1.1//EN"
 "http://www.w3.org/Graphics/SVG/1.1/DTD/svg11.dtd">
<!-- Generated by graphviz version 2.42.3 (20191010.1750)
 -->
<!-- Title: finite_state_machine Pages: 1 -->
<svg width="311pt" height="306pt"
 viewBox="0.00 0.00 310.79 306.09" xmlns="http://www.w3.org/2000/svg" xmlns:xlink="http://www.w3.org/1999/xlink">
<g id="graph0" class="graph" transform="scale(1 1) rotate(0) translate(4 302.09)">
<title>finite_state_machine</title>
<polygon fill="white" stroke="transparent" points="-4,4 -4,-302.09 306.79,-302.09 306.79,4 -4,4"/>
<!-- 1003 -->
<g id="node1" class="node">
<title>1003</title>
<ellipse fill="none" stroke="black" cx="110.55" cy="-267.55" rx="30.59" ry="30.59"/>
<text text-anchor="middle" x="110.55" y="-263.85" font-family="Helvetica,Arial,sans-serif" font-size="14.00">1003</text>
</g>
<!-- 3 -->
<g id="node2" class="node">
<title>3</title>
<ellipse fill="none" stroke="black" cx="203.09" cy="-188.55" rx="18" ry="18"/>
<text text-anchor="middle" x="203.09" y="-184.85" font-family="Helvetica,Arial,sans-serif" font-size="14.00">3</text>
</g>
<!-- 1003&#45;&gt;3 -->
<g id="edge1" class="edge">
<title>1003&#45;&gt;3</title>
<path fill="none" stroke="black" d="M134.4,-247.61C148.85,-235 167.38,-218.84 181.4,-206.6"/>
<polygon fill="black" stroke="black" points="183.83,-209.12 189.07,-199.91 179.23,-203.85 183.83,-209.12"/>
<text text-anchor="middle" x="163.09" y="-229.35" font-family="Helvetica,Arial,sans-serif" font-size="14.00">1</text>
</g>
<!-- &#45;1 -->
<g id="node9" class="node">
<title>&#45;1</title>
<ellipse fill="none" stroke="black" cx="283.94" cy="-122.55" rx="18.7" ry="18.7"/>
<text text-anchor="middle" x="283.94" y="-118.85" font-family="Helvetica,Arial,sans-serif" font-size="14.00">&#45;1</text>
</g>
<!-- 3&#45;&gt;&#45;1 -->
<g id="edge10" class="edge">
<title>3&#45;&gt;&#45;1</title>
<path fill="none" stroke="black" d="M217.47,-177.35C229.44,-167.33 247.22,-152.45 261.23,-140.72"/>
<polygon fill="black" stroke="black" points="263.55,-143.35 268.97,-134.24 259.06,-137.98 263.55,-143.35"/>
<text text-anchor="middle" x="243.09" y="-160.35" font-family="Helvetica,Arial,sans-serif" font-size="14.00">1</text>
</g>
<!-- 0 -->
<g id="node3" class="node">
<title>0</title>
<ellipse fill="none" stroke="black" cx="18" cy="-148.55" rx="18" ry="18"/>
<text text-anchor="middle" x="18" y="-144.85" font-family="Helvetica,Arial,sans-serif" font-size="14.00">0</text>
</g>
<!-- 0&#45;&gt;1003 -->
<g id="edge2" class="edge">
<title>0&#45;&gt;1003</title>
<path fill="none" stroke="black" d="M29.74,-162.67C43.32,-180.51 67.1,-211.76 85.18,-235.52"/>
<polygon fill="black" stroke="black" points="82.47,-237.74 91.31,-243.58 88.04,-233.5 82.47,-237.74"/>
<text text-anchor="middle" x="58" y="-207.35" font-family="Helvetica,Arial,sans-serif" font-size="14.00">1</text>
</g>
<!-- 1002 -->
<g id="node4" class="node">
<title>1002</title>
<ellipse fill="none" stroke="black" cx="110.55" cy="-109.55" rx="30.59" ry="30.59"/>
<text text-anchor="middle" x="110.55" y="-105.85" font-family="Helvetica,Arial,sans-serif" font-size="14.00">1002</text>
</g>
<!-- 0&#45;&gt;1002 -->
<g id="edge3" class="edge">
<title>0&#45;&gt;1002</title>
<path fill="none" stroke="black" d="M34.77,-141.75C45.29,-137.22 59.57,-131.07 72.84,-125.36"/>
<polygon fill="black" stroke="black" points="74.45,-128.48 82.25,-121.3 71.68,-122.05 74.45,-128.48"/>
<text text-anchor="middle" x="58" y="-135.35" font-family="Helvetica,Arial,sans-serif" font-size="14.00">1</text>
</g>
<!-- 1001 -->
<g id="node5" class="node">
<title>1001</title>
<ellipse fill="none" stroke="black" cx="110.55" cy="-30.55" rx="30.59" ry="30.59"/>
<text text-anchor="middle" x="110.55" y="-26.85" font-family="Helvetica,Arial,sans-serif" font-size="14.00">1001</text>
</g>
<!-- 0&#45;&gt;1001 -->
<g id="edge4" class="edge">
<title>0&#45;&gt;1001</title>
<path fill="none" stroke="black" d="M29.74,-134.55C43.32,-116.85 67.1,-85.87 85.18,-62.31"/>
<polygon fill="black" stroke="black" points="88,-64.38 91.31,-54.32 82.44,-60.12 88,-64.38"/>
<text text-anchor="middle" x="58" y="-103.35" font-family="Helvetica,Arial,sans-serif" font-size="14.00">1</text>
</g>
<!-- 1000 -->
<g id="node6" class="node">
<title>1000</title>
<ellipse fill="none" stroke="black" cx="110.55" cy="-188.55" rx="30.59" ry="30.59"/>
<text text-anchor="middle" x="110.55" y="-184.85" font-family="Helvetica,Arial,sans-serif" font-size="14.00">1000</text>
</g>
<!-- 0&#45;&gt;1000 -->
<g id="edge5" class="edge">
<title>0&#45;&gt;1000</title>
<path fill="none" stroke="black" d="M34.77,-155.51C45.29,-160.16 59.57,-166.47 72.84,-172.33"/>
<polygon fill="black" stroke="black" points="71.69,-175.65 82.25,-176.49 74.52,-169.25 71.69,-175.65"/>
<text text-anchor="middle" x="58" y="-170.35" font-family="Helvetica,Arial,sans-serif" font-size="14.00">1</text>
</g>
<!-- 2 -->
<g id="node7" class="node">
<title>2</title>
<ellipse fill="none" stroke="black" cx="203.09" cy="-122.55" rx="18" ry="18"/>
<text text-anchor="middle" x="203.09" y="-118.85" font-family="Helvetica,Arial,sans-serif" font-size="14.00">2</text>
</g>
<!-- 1002&#45;&gt;2 -->
<g id="edge6" class="edge">
<title>1002&#45;&gt;2</title>
<path fill="none" stroke="black" d="M141.37,-109.93C149.74,-110.37 158.81,-111.16 167.09,-112.55 170.02,-113.04 173.04,-113.68 176.03,-114.41"/>
<polygon fill="black" stroke="black" points="175.32,-117.84 185.89,-117.1 177.16,-111.09 175.32,-117.84"/>
<text text-anchor="middle" x="163.09" y="-116.35" font-family="Helvetica,Arial,sans-serif" font-size="14.00">1</text>
</g>
<!-- 1 -->
<g id="node8" class="node">
<title>1</title>
<ellipse fill="none" stroke="black" cx="203.09" cy="-65.55" rx="18" ry="18"/>
<text text-anchor="middle" x="203.09" y="-61.85" font-family="Helvetica,Arial,sans-serif" font-size="14.00">1</text>
</g>
<!-- 1001&#45;&gt;1 -->
<g id="edge7" class="edge">
<title>1001&#45;&gt;1</title>
<path fill="none" stroke="black" d="M139.21,-41.24C151.03,-45.81 164.76,-51.12 176.36,-55.6"/>
<polygon fill="black" stroke="black" points="175.33,-58.95 185.92,-59.29 177.85,-52.42 175.33,-58.95"/>
<text text-anchor="middle" x="163.09" y="-55.35" font-family="Helvetica,Arial,sans-serif" font-size="14.00">1</text>
</g>
<!-- 1000&#45;&gt;3 -->
<g id="edge8" class="edge">
<title>1000&#45;&gt;3</title>
<path fill="none" stroke="black" d="M141.2,-188.55C152.1,-188.55 164.39,-188.55 175.06,-188.55"/>
<polygon fill="black" stroke="black" points="175.07,-192.05 185.07,-188.55 175.07,-185.05 175.07,-192.05"/>
<text text-anchor="middle" x="163.09" y="-192.35" font-family="Helvetica,Arial,sans-serif" font-size="14.00">1</text>
</g>
<!-- 1000&#45;&gt;2 -->
<g id="edge9" class="edge">
<title>1000&#45;&gt;2</title>
<path fill="none" stroke="black" d="M135.81,-170.86C149.56,-160.84 166.64,-148.39 180.01,-138.64"/>
<polygon fill="black" stroke="black" points="182.17,-141.4 188.19,-132.68 178.05,-135.74 182.17,-141.4"/>
<text text-anchor="middle" x="163.09" y="-157.35" font-family="Helvetica,Arial,sans-serif" font-size="14.00">1</text>
</g>
<!-- 2&#45;&gt;&#45;1 -->
<g id="edge11" class="edge">
<title>2&#45;&gt;&#45;1</title>
<path fill="none" stroke="black" d="M221.2,-122.55C231.02,-122.55 243.59,-122.55 254.82,-122.55"/>
<polygon fill="black" stroke="black" points="255.05,-126.05 265.05,-122.55 255.05,-119.05 255.05,-126.05"/>
<text text-anchor="middle" x="243.09" y="-126.35" font-family="Helvetica,Arial,sans-serif" font-size="14.00">2</text>
</g>
<!-- 1&#45;&gt;&#45;1 -->
<g id="edge12" class="edge">
<title>1&#45;&gt;&#45;1</title>
<path fill="none" stroke="black" d="M218.19,-75.74C229.75,-84.09 246.34,-96.08 259.83,-105.84"/>
<polygon fill="black" stroke="black" points="258.01,-108.84 268.17,-111.86 262.11,-103.17 258.01,-108.84"/>
<text text-anchor="middle" x="243.09" y="-99.35" font-family="Helvetica,Arial,sans-serif" font-size="14.00">1</text>
</g>
</g>
</svg>
