<?xml version="1.0" encoding="UTF-8" standalone="no"?>
<!DOCTYPE svg PUBLIC "-//W3C//DTD SVG 1.1//EN"
 "http://www.w3.org/Graphics/SVG/1.1/DTD/svg11.dtd">
<!-- Generated by graphviz version 2.42.3 (20191010.1750)
 -->
<!-- Title: finite_state_machine Pages: 1 -->
<svg width="316pt" height="1175pt"
 viewBox="0.00 0.00 316.39 1175.09" xmlns="http://www.w3.org/2000/svg" xmlns:xlink="http://www.w3.org/1999/xlink">
<g id="graph0" class="graph" transform="scale(1 1) rotate(0) translate(4 1171.09)">
<title>finite_state_machine</title>
<polygon fill="white" stroke="transparent" points="-4,4 -4,-1171.09 312.39,-1171.09 312.39,4 -4,4"/>
<!-- 1014 -->
<g id="node1" class="node">
<title>1014</title>
<ellipse fill="none" stroke="black" cx="110.55" cy="-1057.55" rx="30.59" ry="30.59"/>
<text text-anchor="middle" x="110.55" y="-1053.85" font-family="Helvetica,Arial,sans-serif" font-size="14.00">1014</text>
</g>
<!-- 3 -->
<g id="node2" class="node">
<title>3</title>
<ellipse fill="none" stroke="black" cx="205.89" cy="-1003.55" rx="18" ry="18"/>
<text text-anchor="middle" x="205.89" y="-999.85" font-family="Helvetica,Arial,sans-serif" font-size="14.00">3</text>
</g>
<!-- 1014&#45;&gt;3 -->
<g id="edge1" class="edge">
<title>1014&#45;&gt;3</title>
<path fill="none" stroke="black" d="M137.55,-1042.51C151.09,-1034.67 167.55,-1025.15 180.8,-1017.48"/>
<polygon fill="black" stroke="black" points="182.89,-1020.32 189.8,-1012.28 179.39,-1014.26 182.89,-1020.32"/>
<text text-anchor="middle" x="163.09" y="-1033.35" font-family="Helvetica,Arial,sans-serif" font-size="14.00">1</text>
</g>
<!-- &#45;1 -->
<g id="node31" class="node">
<title>&#45;1</title>
<ellipse fill="none" stroke="black" cx="289.54" cy="-504.55" rx="18.7" ry="18.7"/>
<text text-anchor="middle" x="289.54" y="-500.85" font-family="Helvetica,Arial,sans-serif" font-size="14.00">&#45;1</text>
</g>
<!-- 3&#45;&gt;&#45;1 -->
<g id="edge52" class="edge">
<title>3&#45;&gt;&#45;1</title>
<path fill="none" stroke="black" d="M217.82,-989.69C221.05,-985.07 224.34,-979.77 226.69,-974.55 246.21,-931.08 244.57,-917.49 252.69,-870.55 274.2,-746.21 283.86,-595.72 287.15,-533.56"/>
<polygon fill="black" stroke="black" points="290.66,-533.51 287.68,-523.34 283.67,-533.15 290.66,-533.51"/>
<text text-anchor="middle" x="248.69" y="-922.35" font-family="Helvetica,Arial,sans-serif" font-size="14.00">1</text>
</g>
<!-- 0 -->
<g id="node3" class="node">
<title>0</title>
<ellipse fill="none" stroke="black" cx="18" cy="-583.55" rx="18" ry="18"/>
<text text-anchor="middle" x="18" y="-579.85" font-family="Helvetica,Arial,sans-serif" font-size="14.00">0</text>
</g>
<!-- 0&#45;&gt;1014 -->
<g id="edge2" class="edge">
<title>0&#45;&gt;1014</title>
<path fill="none" stroke="black" d="M20.04,-601.55C23.11,-651.44 33.23,-795.53 54,-913.55 62.33,-960.9 59.28,-975.16 80,-1018.55 81.24,-1021.13 82.66,-1023.72 84.2,-1026.25"/>
<polygon fill="black" stroke="black" points="81.32,-1028.24 89.78,-1034.62 87.14,-1024.36 81.32,-1028.24"/>
<text text-anchor="middle" x="58" y="-968.35" font-family="Helvetica,Arial,sans-serif" font-size="14.00">1</text>
</g>
<!-- 1013 -->
<g id="node4" class="node">
<title>1013</title>
<ellipse fill="none" stroke="black" cx="110.55" cy="-978.55" rx="30.59" ry="30.59"/>
<text text-anchor="middle" x="110.55" y="-974.85" font-family="Helvetica,Arial,sans-serif" font-size="14.00">1013</text>
</g>
<!-- 0&#45;&gt;1013 -->
<g id="edge3" class="edge">
<title>0&#45;&gt;1013</title>
<path fill="none" stroke="black" d="M18.77,-601.58C18.74,-655.62 23.62,-819.85 80,-939.55 81.22,-942.14 82.63,-944.73 84.17,-947.27"/>
<polygon fill="black" stroke="black" points="81.29,-949.25 89.74,-955.64 87.11,-945.38 81.29,-949.25"/>
<text text-anchor="middle" x="58" y="-898.35" font-family="Helvetica,Arial,sans-serif" font-size="14.00">1</text>
</g>
<!-- 1012 -->
<g id="node5" class="node">
<title>1012</title>
<ellipse fill="none" stroke="black" cx="110.55" cy="-820.55" rx="30.59" ry="30.59"/>
<text text-anchor="middle" x="110.55" y="-816.85" font-family="Helvetica,Arial,sans-serif" font-size="14.00">1012</text>
</g>
<!-- 0&#45;&gt;1012 -->
<g id="edge4" class="edge">
<title>0&#45;&gt;1012</title>
<path fill="none" stroke="black" d="M22.29,-601.28C29.36,-636.92 48.01,-719.13 80,-781.55 81.31,-784.1 82.78,-786.66 84.36,-789.17"/>
<polygon fill="black" stroke="black" points="81.51,-791.2 90.02,-797.5 87.3,-787.26 81.51,-791.2"/>
<text text-anchor="middle" x="58" y="-744.35" font-family="Helvetica,Arial,sans-serif" font-size="14.00">1</text>
</g>
<!-- 1011 -->
<g id="node6" class="node">
<title>1011</title>
<ellipse fill="none" stroke="black" cx="110.55" cy="-425.55" rx="30.59" ry="30.59"/>
<text text-anchor="middle" x="110.55" y="-421.85" font-family="Helvetica,Arial,sans-serif" font-size="14.00">1011</text>
</g>
<!-- 0&#45;&gt;1011 -->
<g id="edge5" class="edge">
<title>0&#45;&gt;1011</title>
<path fill="none" stroke="black" d="M26.24,-567.28C36.88,-543.89 57.89,-499.73 80,-464.55 81.53,-462.12 83.16,-459.65 84.85,-457.2"/>
<polygon fill="black" stroke="black" points="87.75,-459.17 90.74,-449 82.07,-455.09 87.75,-459.17"/>
<text text-anchor="middle" x="58" y="-513.35" font-family="Helvetica,Arial,sans-serif" font-size="14.00">1</text>
</g>
<!-- 1010 -->
<g id="node7" class="node">
<title>1010</title>
<ellipse fill="none" stroke="black" cx="110.55" cy="-504.55" rx="30.59" ry="30.59"/>
<text text-anchor="middle" x="110.55" y="-500.85" font-family="Helvetica,Arial,sans-serif" font-size="14.00">1010</text>
</g>
<!-- 0&#45;&gt;1010 -->
<g id="edge6" class="edge">
<title>0&#45;&gt;1010</title>
<path fill="none" stroke="black" d="M32.36,-571.89C44.71,-561.12 63.49,-544.73 79.44,-530.82"/>
<polygon fill="black" stroke="black" points="81.76,-533.43 87,-524.22 77.16,-528.16 81.76,-533.43"/>
<text text-anchor="middle" x="58" y="-555.35" font-family="Helvetica,Arial,sans-serif" font-size="14.00">1</text>
</g>
<!-- 1009 -->
<g id="node8" class="node">
<title>1009</title>
<ellipse fill="none" stroke="black" cx="110.55" cy="-188.55" rx="30.59" ry="30.59"/>
<text text-anchor="middle" x="110.55" y="-184.85" font-family="Helvetica,Arial,sans-serif" font-size="14.00">1009</text>
</g>
<!-- 0&#45;&gt;1009 -->
<g id="edge7" class="edge">
<title>0&#45;&gt;1009</title>
<path fill="none" stroke="black" d="M18.78,-565.51C18.78,-511.49 23.74,-347.3 80,-227.55 81.22,-224.95 82.63,-222.36 84.16,-219.83"/>
<polygon fill="black" stroke="black" points="87.11,-221.71 89.73,-211.45 81.28,-217.84 87.11,-221.71"/>
<text text-anchor="middle" x="58" y="-296.35" font-family="Helvetica,Arial,sans-serif" font-size="14.00">1</text>
</g>
<!-- 1008 -->
<g id="node9" class="node">
<title>1008</title>
<ellipse fill="none" stroke="black" cx="110.55" cy="-899.55" rx="30.59" ry="30.59"/>
<text text-anchor="middle" x="110.55" y="-895.85" font-family="Helvetica,Arial,sans-serif" font-size="14.00">1008</text>
</g>
<!-- 0&#45;&gt;1008 -->
<g id="edge8" class="edge">
<title>0&#45;&gt;1008</title>
<path fill="none" stroke="black" d="M20.09,-601.66C23.45,-647.31 36.18,-769.88 80,-860.55 81.25,-863.13 82.68,-865.71 84.23,-868.24"/>
<polygon fill="black" stroke="black" points="81.35,-870.24 89.82,-876.6 87.17,-866.34 81.35,-870.24"/>
<text text-anchor="middle" x="58" y="-814.35" font-family="Helvetica,Arial,sans-serif" font-size="14.00">1</text>
</g>
<!-- 1007 -->
<g id="node10" class="node">
<title>1007</title>
<ellipse fill="none" stroke="black" cx="110.55" cy="-346.55" rx="30.59" ry="30.59"/>
<text text-anchor="middle" x="110.55" y="-342.85" font-family="Helvetica,Arial,sans-serif" font-size="14.00">1007</text>
</g>
<!-- 0&#45;&gt;1007 -->
<g id="edge9" class="edge">
<title>0&#45;&gt;1007</title>
<path fill="none" stroke="black" d="M22.29,-565.81C29.36,-530.18 48.01,-447.97 80,-385.55 81.31,-383 82.78,-380.44 84.36,-377.92"/>
<polygon fill="black" stroke="black" points="87.3,-379.83 90.02,-369.59 81.51,-375.9 87.3,-379.83"/>
<text text-anchor="middle" x="58" y="-447.35" font-family="Helvetica,Arial,sans-serif" font-size="14.00">1</text>
</g>
<!-- 1006 -->
<g id="node11" class="node">
<title>1006</title>
<ellipse fill="none" stroke="black" cx="110.55" cy="-109.55" rx="30.59" ry="30.59"/>
<text text-anchor="middle" x="110.55" y="-105.85" font-family="Helvetica,Arial,sans-serif" font-size="14.00">1006</text>
</g>
<!-- 0&#45;&gt;1006 -->
<g id="edge10" class="edge">
<title>0&#45;&gt;1006</title>
<path fill="none" stroke="black" d="M20.06,-565.6C23.17,-515.87 33.4,-372.23 54,-254.55 62.36,-206.77 59.14,-192.34 80,-148.55 81.23,-145.96 82.65,-143.38 84.19,-140.84"/>
<polygon fill="black" stroke="black" points="87.14,-142.73 89.77,-132.47 81.31,-138.85 87.14,-142.73"/>
<text text-anchor="middle" x="58" y="-258.35" font-family="Helvetica,Arial,sans-serif" font-size="14.00">1</text>
</g>
<!-- 1005 -->
<g id="node12" class="node">
<title>1005</title>
<ellipse fill="none" stroke="black" cx="110.55" cy="-267.55" rx="30.59" ry="30.59"/>
<text text-anchor="middle" x="110.55" y="-263.85" font-family="Helvetica,Arial,sans-serif" font-size="14.00">1005</text>
</g>
<!-- 0&#45;&gt;1005 -->
<g id="edge11" class="edge">
<title>0&#45;&gt;1005</title>
<path fill="none" stroke="black" d="M20.11,-565.44C23.49,-519.81 36.29,-397.27 80,-306.55 81.24,-303.96 82.67,-301.38 84.22,-298.85"/>
<polygon fill="black" stroke="black" points="87.16,-300.75 89.81,-290.49 81.34,-296.86 87.16,-300.75"/>
<text text-anchor="middle" x="58" y="-375.35" font-family="Helvetica,Arial,sans-serif" font-size="14.00">1</text>
</g>
<!-- 1004 -->
<g id="node13" class="node">
<title>1004</title>
<ellipse fill="none" stroke="black" cx="110.55" cy="-30.55" rx="30.59" ry="30.59"/>
<text text-anchor="middle" x="110.55" y="-26.85" font-family="Helvetica,Arial,sans-serif" font-size="14.00">1004</text>
</g>
<!-- 0&#45;&gt;1004 -->
<g id="edge12" class="edge">
<title>0&#45;&gt;1004</title>
<path fill="none" stroke="black" d="M19.7,-565.5C22.07,-508.89 31.02,-329.89 54,-183.55 62.06,-132.21 58.04,-116.65 80,-69.55 81.21,-66.95 82.62,-64.36 84.14,-61.82"/>
<polygon fill="black" stroke="black" points="87.09,-63.71 89.7,-53.44 81.26,-59.84 87.09,-63.71"/>
<text text-anchor="middle" x="58" y="-187.35" font-family="Helvetica,Arial,sans-serif" font-size="14.00">1</text>
</g>
<!-- 1003 -->
<g id="node14" class="node">
<title>1003</title>
<ellipse fill="none" stroke="black" cx="110.55" cy="-662.55" rx="30.59" ry="30.59"/>
<text text-anchor="middle" x="110.55" y="-658.85" font-family="Helvetica,Arial,sans-serif" font-size="14.00">1003</text>
</g>
<!-- 0&#45;&gt;1003 -->
<g id="edge13" class="edge">
<title>0&#45;&gt;1003</title>
<path fill="none" stroke="black" d="M32.36,-595.2C44.71,-605.97 63.49,-622.36 79.44,-636.28"/>
<polygon fill="black" stroke="black" points="77.16,-638.94 87,-642.87 81.76,-633.66 77.16,-638.94"/>
<text text-anchor="middle" x="58" y="-625.35" font-family="Helvetica,Arial,sans-serif" font-size="14.00">1</text>
</g>
<!-- 1002 -->
<g id="node15" class="node">
<title>1002</title>
<ellipse fill="none" stroke="black" cx="110.55" cy="-583.55" rx="30.59" ry="30.59"/>
<text text-anchor="middle" x="110.55" y="-579.85" font-family="Helvetica,Arial,sans-serif" font-size="14.00">1002</text>
</g>
<!-- 0&#45;&gt;1002 -->
<g id="edge14" class="edge">
<title>0&#45;&gt;1002</title>
<path fill="none" stroke="black" d="M36.03,-583.55C45.54,-583.55 57.82,-583.55 69.61,-583.55"/>
<polygon fill="black" stroke="black" points="69.76,-587.05 79.76,-583.55 69.76,-580.05 69.76,-587.05"/>
<text text-anchor="middle" x="58" y="-587.35" font-family="Helvetica,Arial,sans-serif" font-size="14.00">1</text>
</g>
<!-- 1001 -->
<g id="node16" class="node">
<title>1001</title>
<ellipse fill="none" stroke="black" cx="110.55" cy="-741.55" rx="30.59" ry="30.59"/>
<text text-anchor="middle" x="110.55" y="-737.85" font-family="Helvetica,Arial,sans-serif" font-size="14.00">1001</text>
</g>
<!-- 0&#45;&gt;1001 -->
<g id="edge15" class="edge">
<title>0&#45;&gt;1001</title>
<path fill="none" stroke="black" d="M26.24,-599.82C36.88,-623.2 57.89,-667.36 80,-702.55 81.53,-704.97 83.16,-707.44 84.85,-709.89"/>
<polygon fill="black" stroke="black" points="82.07,-712.01 90.74,-718.09 87.75,-707.93 82.07,-712.01"/>
<text text-anchor="middle" x="58" y="-675.35" font-family="Helvetica,Arial,sans-serif" font-size="14.00">1</text>
</g>
<!-- 1000 -->
<g id="node17" class="node">
<title>1000</title>
<ellipse fill="none" stroke="black" cx="110.55" cy="-1136.55" rx="30.59" ry="30.59"/>
<text text-anchor="middle" x="110.55" y="-1132.85" font-family="Helvetica,Arial,sans-serif" font-size="14.00">1000</text>
</g>
<!-- 0&#45;&gt;1000 -->
<g id="edge16" class="edge">
<title>0&#45;&gt;1000</title>
<path fill="none" stroke="black" d="M19.7,-601.59C22.07,-658.2 31.02,-837.21 54,-983.55 62.06,-1034.89 58.04,-1050.45 80,-1097.55 81.21,-1100.15 82.62,-1102.74 84.14,-1105.28"/>
<polygon fill="black" stroke="black" points="81.26,-1107.26 89.7,-1113.66 87.09,-1103.39 81.26,-1107.26"/>
<text text-anchor="middle" x="58" y="-1046.35" font-family="Helvetica,Arial,sans-serif" font-size="14.00">1</text>
</g>
<!-- 13 -->
<g id="node18" class="node">
<title>13</title>
<ellipse fill="none" stroke="black" cx="205.89" cy="-944.55" rx="20.6" ry="20.6"/>
<text text-anchor="middle" x="205.89" y="-940.85" font-family="Helvetica,Arial,sans-serif" font-size="14.00">13</text>
</g>
<!-- 1013&#45;&gt;13 -->
<g id="edge17" class="edge">
<title>1013&#45;&gt;13</title>
<path fill="none" stroke="black" d="M139.55,-968.35C151.18,-964.11 164.67,-959.2 176.35,-954.94"/>
<polygon fill="black" stroke="black" points="177.87,-958.12 186.07,-951.4 175.47,-951.54 177.87,-958.12"/>
<text text-anchor="middle" x="163.09" y="-964.35" font-family="Helvetica,Arial,sans-serif" font-size="14.00">1</text>
</g>
<!-- 5 -->
<g id="node19" class="node">
<title>5</title>
<ellipse fill="none" stroke="black" cx="205.89" cy="-820.55" rx="18" ry="18"/>
<text text-anchor="middle" x="205.89" y="-816.85" font-family="Helvetica,Arial,sans-serif" font-size="14.00">5</text>
</g>
<!-- 1012&#45;&gt;5 -->
<g id="edge18" class="edge">
<title>1012&#45;&gt;5</title>
<path fill="none" stroke="black" d="M141.34,-820.55C152.98,-820.55 166.25,-820.55 177.64,-820.55"/>
<polygon fill="black" stroke="black" points="177.87,-824.05 187.87,-820.55 177.87,-817.05 177.87,-824.05"/>
<text text-anchor="middle" x="163.09" y="-824.35" font-family="Helvetica,Arial,sans-serif" font-size="14.00">1</text>
</g>
<!-- 14 -->
<g id="node20" class="node">
<title>14</title>
<ellipse fill="none" stroke="black" cx="205.89" cy="-358.55" rx="20.6" ry="20.6"/>
<text text-anchor="middle" x="205.89" y="-354.85" font-family="Helvetica,Arial,sans-serif" font-size="14.00">14</text>
</g>
<!-- 1011&#45;&gt;14 -->
<g id="edge19" class="edge">
<title>1011&#45;&gt;14</title>
<path fill="none" stroke="black" d="M136.07,-407.94C149.63,-398.21 166.44,-386.15 180.05,-376.38"/>
<polygon fill="black" stroke="black" points="182.38,-379.01 188.46,-370.34 178.3,-373.33 182.38,-379.01"/>
<text text-anchor="middle" x="163.09" y="-394.35" font-family="Helvetica,Arial,sans-serif" font-size="14.00">1</text>
</g>
<!-- 9 -->
<g id="node21" class="node">
<title>9</title>
<ellipse fill="none" stroke="black" cx="205.89" cy="-422.55" rx="18" ry="18"/>
<text text-anchor="middle" x="205.89" y="-418.85" font-family="Helvetica,Arial,sans-serif" font-size="14.00">9</text>
</g>
<!-- 1011&#45;&gt;9 -->
<g id="edge20" class="edge">
<title>1011&#45;&gt;9</title>
<path fill="none" stroke="black" d="M141.08,-424.6C152.74,-424.22 166.05,-423.8 177.49,-423.43"/>
<polygon fill="black" stroke="black" points="177.89,-426.92 187.77,-423.1 177.66,-419.92 177.89,-426.92"/>
<text text-anchor="middle" x="163.09" y="-428.35" font-family="Helvetica,Arial,sans-serif" font-size="14.00">1</text>
</g>
<!-- 6 -->
<g id="node22" class="node">
<title>6</title>
<ellipse fill="none" stroke="black" cx="205.89" cy="-476.55" rx="18" ry="18"/>
<text text-anchor="middle" x="205.89" y="-472.85" font-family="Helvetica,Arial,sans-serif" font-size="14.00">6</text>
</g>
<!-- 1010&#45;&gt;6 -->
<g id="edge21" class="edge">
<title>1010&#45;&gt;6</title>
<path fill="none" stroke="black" d="M136.09,-486.77C143.17,-482.58 151.15,-478.71 159.09,-476.55 164.85,-474.98 171.16,-474.33 177.21,-474.2"/>
<polygon fill="black" stroke="black" points="177.57,-477.7 187.64,-474.42 177.72,-470.71 177.57,-477.7"/>
<text text-anchor="middle" x="163.09" y="-480.35" font-family="Helvetica,Arial,sans-serif" font-size="14.00">1</text>
</g>
<!-- 12 -->
<g id="node23" class="node">
<title>12</title>
<ellipse fill="none" stroke="black" cx="205.89" cy="-533.55" rx="20.6" ry="20.6"/>
<text text-anchor="middle" x="205.89" y="-529.85" font-family="Helvetica,Arial,sans-serif" font-size="14.00">12</text>
</g>
<!-- 1010&#45;&gt;12 -->
<g id="edge22" class="edge">
<title>1010&#45;&gt;12</title>
<path fill="none" stroke="black" d="M141.06,-508.24C149.59,-509.74 158.82,-511.79 167.09,-514.55 170.72,-515.76 174.44,-517.26 178.05,-518.89"/>
<polygon fill="black" stroke="black" points="176.75,-522.15 187.27,-523.37 179.81,-515.85 176.75,-522.15"/>
<text text-anchor="middle" x="163.09" y="-518.35" font-family="Helvetica,Arial,sans-serif" font-size="14.00">1</text>
</g>
<!-- 7 -->
<g id="node24" class="node">
<title>7</title>
<ellipse fill="none" stroke="black" cx="205.89" cy="-197.55" rx="18" ry="18"/>
<text text-anchor="middle" x="205.89" y="-193.85" font-family="Helvetica,Arial,sans-serif" font-size="14.00">7</text>
</g>
<!-- 1009&#45;&gt;7 -->
<g id="edge23" class="edge">
<title>1009&#45;&gt;7</title>
<path fill="none" stroke="black" d="M141.27,-190.36C149.63,-190.96 158.73,-191.69 167.09,-192.55 170.63,-192.91 174.34,-193.34 178,-193.79"/>
<polygon fill="black" stroke="black" points="177.62,-197.27 187.98,-195.09 178.52,-190.33 177.62,-197.27"/>
<text text-anchor="middle" x="163.09" y="-196.35" font-family="Helvetica,Arial,sans-serif" font-size="14.00">1</text>
</g>
<!-- 11 -->
<g id="node25" class="node">
<title>11</title>
<ellipse fill="none" stroke="black" cx="205.89" cy="-283.55" rx="20.6" ry="20.6"/>
<text text-anchor="middle" x="205.89" y="-279.85" font-family="Helvetica,Arial,sans-serif" font-size="14.00">11</text>
</g>
<!-- 1009&#45;&gt;11 -->
<g id="edge24" class="edge">
<title>1009&#45;&gt;11</title>
<path fill="none" stroke="black" d="M132.73,-210.1C147.98,-225.63 168.48,-246.49 183.73,-262.01"/>
<polygon fill="black" stroke="black" points="181.24,-264.47 190.75,-269.15 186.24,-259.57 181.24,-264.47"/>
<text text-anchor="middle" x="163.09" y="-249.35" font-family="Helvetica,Arial,sans-serif" font-size="14.00">1</text>
</g>
<!-- 1008&#45;&gt;5 -->
<g id="edge26" class="edge">
<title>1008&#45;&gt;5</title>
<path fill="none" stroke="black" d="M134.62,-880.02C149.61,-867.34 168.99,-850.93 183.61,-838.56"/>
<polygon fill="black" stroke="black" points="186.22,-840.94 191.59,-831.81 181.7,-835.59 186.22,-840.94"/>
<text text-anchor="middle" x="163.09" y="-862.35" font-family="Helvetica,Arial,sans-serif" font-size="14.00">1</text>
</g>
<!-- 4 -->
<g id="node26" class="node">
<title>4</title>
<ellipse fill="none" stroke="black" cx="205.89" cy="-883.55" rx="18" ry="18"/>
<text text-anchor="middle" x="205.89" y="-879.85" font-family="Helvetica,Arial,sans-serif" font-size="14.00">4</text>
</g>
<!-- 1008&#45;&gt;4 -->
<g id="edge25" class="edge">
<title>1008&#45;&gt;4</title>
<path fill="none" stroke="black" d="M140.83,-894.53C152.7,-892.49 166.32,-890.16 177.94,-888.17"/>
<polygon fill="black" stroke="black" points="178.68,-891.59 187.95,-886.45 177.5,-884.69 178.68,-891.59"/>
<text text-anchor="middle" x="163.09" y="-895.35" font-family="Helvetica,Arial,sans-serif" font-size="14.00">1</text>
</g>
<!-- 1007&#45;&gt;14 -->
<g id="edge27" class="edge">
<title>1007&#45;&gt;14</title>
<path fill="none" stroke="black" d="M141.35,-346.4C149.71,-346.69 158.79,-347.32 167.09,-348.55 169.99,-348.98 172.98,-349.55 175.96,-350.19"/>
<polygon fill="black" stroke="black" points="175.29,-353.63 185.84,-352.62 176.96,-346.84 175.29,-353.63"/>
<text text-anchor="middle" x="163.09" y="-352.35" font-family="Helvetica,Arial,sans-serif" font-size="14.00">1</text>
</g>
<!-- 1007&#45;&gt;7 -->
<g id="edge28" class="edge">
<title>1007&#45;&gt;7</title>
<path fill="none" stroke="black" d="M133.5,-325.98C144.57,-314.78 157.63,-300.24 167.09,-285.55 179.49,-266.29 189.49,-242.28 196.08,-224.21"/>
<polygon fill="black" stroke="black" points="199.45,-225.19 199.48,-214.59 192.85,-222.86 199.45,-225.19"/>
<text text-anchor="middle" x="163.09" y="-301.35" font-family="Helvetica,Arial,sans-serif" font-size="14.00">1</text>
</g>
<!-- 1006&#45;&gt;7 -->
<g id="edge29" class="edge">
<title>1006&#45;&gt;7</title>
<path fill="none" stroke="black" d="M133.67,-130.4C149.19,-145.03 169.77,-164.43 184.81,-178.62"/>
<polygon fill="black" stroke="black" points="182.44,-181.19 192.12,-185.51 187.24,-176.1 182.44,-181.19"/>
<text text-anchor="middle" x="163.09" y="-165.35" font-family="Helvetica,Arial,sans-serif" font-size="14.00">1</text>
</g>
<!-- 8 -->
<g id="node27" class="node">
<title>8</title>
<ellipse fill="none" stroke="black" cx="205.89" cy="-109.55" rx="18" ry="18"/>
<text text-anchor="middle" x="205.89" y="-105.85" font-family="Helvetica,Arial,sans-serif" font-size="14.00">8</text>
</g>
<!-- 1006&#45;&gt;8 -->
<g id="edge30" class="edge">
<title>1006&#45;&gt;8</title>
<path fill="none" stroke="black" d="M141.34,-109.55C152.98,-109.55 166.25,-109.55 177.64,-109.55"/>
<polygon fill="black" stroke="black" points="177.87,-113.05 187.87,-109.55 177.87,-106.05 177.87,-113.05"/>
<text text-anchor="middle" x="163.09" y="-113.35" font-family="Helvetica,Arial,sans-serif" font-size="14.00">1</text>
</g>
<!-- 1005&#45;&gt;14 -->
<g id="edge31" class="edge">
<title>1005&#45;&gt;14</title>
<path fill="none" stroke="black" d="M140.93,-263.34C150.01,-263.48 159.6,-265.26 167.09,-270.55 184.03,-282.49 176.92,-294.51 185.09,-313.55 187.41,-318.94 189.91,-324.68 192.33,-330.2"/>
<polygon fill="black" stroke="black" points="189.3,-332.01 196.53,-339.75 195.71,-329.19 189.3,-332.01"/>
<text text-anchor="middle" x="163.09" y="-274.35" font-family="Helvetica,Arial,sans-serif" font-size="14.00">1</text>
</g>
<!-- 1004&#45;&gt;8 -->
<g id="edge33" class="edge">
<title>1004&#45;&gt;8</title>
<path fill="none" stroke="black" d="M134.62,-50.08C149.61,-62.76 168.99,-79.16 183.61,-91.53"/>
<polygon fill="black" stroke="black" points="181.7,-94.5 191.59,-98.29 186.22,-89.16 181.7,-94.5"/>
<text text-anchor="middle" x="163.09" y="-81.35" font-family="Helvetica,Arial,sans-serif" font-size="14.00">1</text>
</g>
<!-- 10 -->
<g id="node28" class="node">
<title>10</title>
<ellipse fill="none" stroke="black" cx="205.89" cy="-42.55" rx="20.6" ry="20.6"/>
<text text-anchor="middle" x="205.89" y="-38.85" font-family="Helvetica,Arial,sans-serif" font-size="14.00">10</text>
</g>
<!-- 1004&#45;&gt;10 -->
<g id="edge32" class="edge">
<title>1004&#45;&gt;10</title>
<path fill="none" stroke="black" d="M141.34,-31.17C149.7,-31.61 158.78,-32.34 167.09,-33.55 169.82,-33.94 172.63,-34.44 175.44,-35"/>
<polygon fill="black" stroke="black" points="174.88,-38.46 185.4,-37.2 176.4,-31.62 174.88,-38.46"/>
<text text-anchor="middle" x="163.09" y="-37.35" font-family="Helvetica,Arial,sans-serif" font-size="14.00">1</text>
</g>
<!-- 1003&#45;&gt;3 -->
<g id="edge36" class="edge">
<title>1003&#45;&gt;3</title>
<path fill="none" stroke="black" d="M138.93,-674.63C149.58,-680.8 160.73,-689.38 167.09,-700.55 197.32,-753.56 165.19,-916.87 185.09,-974.55 185.93,-976.97 187.02,-979.37 188.27,-981.71"/>
<polygon fill="black" stroke="black" points="185.32,-983.59 193.6,-990.21 191.25,-979.87 185.32,-983.59"/>
<text text-anchor="middle" x="163.09" y="-704.35" font-family="Helvetica,Arial,sans-serif" font-size="14.00">1</text>
</g>
<!-- 2 -->
<g id="node29" class="node">
<title>2</title>
<ellipse fill="none" stroke="black" cx="205.89" cy="-590.55" rx="18" ry="18"/>
<text text-anchor="middle" x="205.89" y="-586.85" font-family="Helvetica,Arial,sans-serif" font-size="14.00">2</text>
</g>
<!-- 1003&#45;&gt;2 -->
<g id="edge34" class="edge">
<title>1003&#45;&gt;2</title>
<path fill="none" stroke="black" d="M135.59,-644.01C150.17,-632.76 168.64,-618.51 182.85,-607.55"/>
<polygon fill="black" stroke="black" points="185.29,-610.09 191.07,-601.21 181.01,-604.54 185.29,-610.09"/>
<text text-anchor="middle" x="163.09" y="-628.35" font-family="Helvetica,Arial,sans-serif" font-size="14.00">1</text>
</g>
<!-- 1 -->
<g id="node30" class="node">
<title>1</title>
<ellipse fill="none" stroke="black" cx="205.89" cy="-665.55" rx="18" ry="18"/>
<text text-anchor="middle" x="205.89" y="-661.85" font-family="Helvetica,Arial,sans-serif" font-size="14.00">1</text>
</g>
<!-- 1003&#45;&gt;1 -->
<g id="edge35" class="edge">
<title>1003&#45;&gt;1</title>
<path fill="none" stroke="black" d="M141.08,-663.5C152.74,-663.87 166.05,-664.3 177.49,-664.67"/>
<polygon fill="black" stroke="black" points="177.66,-668.17 187.77,-665 177.89,-661.18 177.66,-668.17"/>
<text text-anchor="middle" x="163.09" y="-668.35" font-family="Helvetica,Arial,sans-serif" font-size="14.00">1</text>
</g>
<!-- 1002&#45;&gt;12 -->
<g id="edge37" class="edge">
<title>1002&#45;&gt;12</title>
<path fill="none" stroke="black" d="M138.05,-569.35C150.59,-562.64 165.54,-554.63 178.11,-547.89"/>
<polygon fill="black" stroke="black" points="180.03,-550.84 187.19,-543.03 176.72,-544.67 180.03,-550.84"/>
<text text-anchor="middle" x="163.09" y="-561.35" font-family="Helvetica,Arial,sans-serif" font-size="14.00">1</text>
</g>
<!-- 1002&#45;&gt;2 -->
<g id="edge38" class="edge">
<title>1002&#45;&gt;2</title>
<path fill="none" stroke="black" d="M141.08,-585.76C152.74,-586.64 166.05,-587.63 177.49,-588.49"/>
<polygon fill="black" stroke="black" points="177.54,-592.01 187.77,-589.26 178.06,-585.03 177.54,-592.01"/>
<text text-anchor="middle" x="163.09" y="-592.35" font-family="Helvetica,Arial,sans-serif" font-size="14.00">1</text>
</g>
<!-- 1001&#45;&gt;1 -->
<g id="edge39" class="edge">
<title>1001&#45;&gt;1</title>
<path fill="none" stroke="black" d="M140.36,-733.74C149.52,-730.36 159.28,-725.72 167.09,-719.55 176.99,-711.73 185.38,-700.63 191.71,-690.52"/>
<polygon fill="black" stroke="black" points="194.88,-692.04 196.94,-681.65 188.85,-688.49 194.88,-692.04"/>
<text text-anchor="middle" x="163.09" y="-728.35" font-family="Helvetica,Arial,sans-serif" font-size="14.00">1</text>
</g>
<!-- 1000&#45;&gt;3 -->
<g id="edge40" class="edge">
<title>1000&#45;&gt;3</title>
<path fill="none" stroke="black" d="M129.87,-1112.77C133.63,-1107.78 137.53,-1102.52 141.09,-1097.55 158.17,-1073.75 176.9,-1045.94 189.62,-1026.77"/>
<polygon fill="black" stroke="black" points="192.58,-1028.64 195.18,-1018.36 186.74,-1024.77 192.58,-1028.64"/>
<text text-anchor="middle" x="163.09" y="-1073.35" font-family="Helvetica,Arial,sans-serif" font-size="14.00">1</text>
</g>
<!-- 13&#45;&gt;&#45;1 -->
<g id="edge42" class="edge">
<title>13&#45;&gt;&#45;1</title>
<path fill="none" stroke="black" d="M218.17,-927.39C221.27,-922.14 224.39,-916.25 226.69,-910.55 244.97,-865.15 243.98,-851.71 252.69,-803.55 270.44,-705.36 281.65,-587.39 286.2,-533.71"/>
<polygon fill="black" stroke="black" points="289.71,-533.81 287.05,-523.55 282.73,-533.23 289.71,-533.81"/>
<text text-anchor="middle" x="248.69" y="-855.35" font-family="Helvetica,Arial,sans-serif" font-size="14.00">1</text>
</g>
<!-- 5&#45;&gt;&#45;1 -->
<g id="edge50" class="edge">
<title>5&#45;&gt;&#45;1</title>
<path fill="none" stroke="black" d="M211.4,-803.11C224.86,-751.02 264.84,-596.25 281.32,-532.49"/>
<polygon fill="black" stroke="black" points="284.73,-533.27 283.84,-522.72 277.95,-531.52 284.73,-533.27"/>
<text text-anchor="middle" x="248.69" y="-676.35" font-family="Helvetica,Arial,sans-serif" font-size="14.00">3</text>
</g>
<!-- 14&#45;&gt;&#45;1 -->
<g id="edge41" class="edge">
<title>14&#45;&gt;&#45;1</title>
<path fill="none" stroke="black" d="M216.9,-376.45C231.35,-402.28 258.11,-450.13 274.52,-479.47"/>
<polygon fill="black" stroke="black" points="271.51,-481.27 279.45,-488.29 277.62,-477.86 271.51,-481.27"/>
<text text-anchor="middle" x="248.69" y="-444.35" font-family="Helvetica,Arial,sans-serif" font-size="14.00">1</text>
</g>
<!-- 9&#45;&gt;&#45;1 -->
<g id="edge46" class="edge">
<title>9&#45;&gt;&#45;1</title>
<path fill="none" stroke="black" d="M219.29,-435C232.33,-448.09 253.04,-468.89 268.42,-484.34"/>
<polygon fill="black" stroke="black" points="265.94,-486.82 275.48,-491.43 270.91,-481.88 265.94,-486.82"/>
<text text-anchor="middle" x="248.69" y="-472.35" font-family="Helvetica,Arial,sans-serif" font-size="14.00">2</text>
</g>
<!-- 6&#45;&gt;&#45;1 -->
<g id="edge49" class="edge">
<title>6&#45;&gt;&#45;1</title>
<path fill="none" stroke="black" d="M223.47,-481.84C232.19,-484.66 243.04,-488.22 252.69,-491.55 255.66,-492.57 258.76,-493.66 261.84,-494.76"/>
<polygon fill="black" stroke="black" points="260.84,-498.12 271.44,-498.22 263.22,-491.54 260.84,-498.12"/>
<text text-anchor="middle" x="248.69" y="-495.35" font-family="Helvetica,Arial,sans-serif" font-size="14.00">1</text>
</g>
<!-- 12&#45;&gt;&#45;1 -->
<g id="edge43" class="edge">
<title>12&#45;&gt;&#45;1</title>
<path fill="none" stroke="black" d="M225.83,-526.82C236.54,-523.02 250.11,-518.2 261.88,-514.02"/>
<polygon fill="black" stroke="black" points="263.4,-517.19 271.65,-510.55 261.05,-510.6 263.4,-517.19"/>
<text text-anchor="middle" x="248.69" y="-524.35" font-family="Helvetica,Arial,sans-serif" font-size="14.00">2</text>
</g>
<!-- 7&#45;&gt;&#45;1 -->
<g id="edge48" class="edge">
<title>7&#45;&gt;&#45;1</title>
<path fill="none" stroke="black" d="M213.2,-214.07C217.31,-225.15 222.65,-240.12 226.69,-253.55 250.69,-333.29 272.39,-429.29 282.52,-476.1"/>
<polygon fill="black" stroke="black" points="279.15,-477.07 284.67,-486.11 285.99,-475.6 279.15,-477.07"/>
<text text-anchor="middle" x="248.69" y="-347.35" font-family="Helvetica,Arial,sans-serif" font-size="14.00">2</text>
</g>
<!-- 11&#45;&gt;&#45;1 -->
<g id="edge44" class="edge">
<title>11&#45;&gt;&#45;1</title>
<path fill="none" stroke="black" d="M215.5,-302.24C219.1,-310.28 223.24,-319.82 226.69,-328.55 247.18,-380.41 268.09,-442.13 279.58,-476.98"/>
<polygon fill="black" stroke="black" points="276.39,-478.49 282.83,-486.9 283.04,-476.3 276.39,-478.49"/>
<text text-anchor="middle" x="248.69" y="-400.35" font-family="Helvetica,Arial,sans-serif" font-size="14.00">1</text>
</g>
<!-- 4&#45;&gt;&#45;1 -->
<g id="edge51" class="edge">
<title>4&#45;&gt;&#45;1</title>
<path fill="none" stroke="black" d="M216.51,-868.64C220.19,-862.35 224.12,-854.81 226.69,-847.55 266.37,-735.6 281.56,-593.68 286.49,-533.56"/>
<polygon fill="black" stroke="black" points="290,-533.55 287.29,-523.31 283.02,-533 290,-533.55"/>
<text text-anchor="middle" x="248.69" y="-788.35" font-family="Helvetica,Arial,sans-serif" font-size="14.00">2</text>
</g>
<!-- 8&#45;&gt;&#45;1 -->
<g id="edge47" class="edge">
<title>8&#45;&gt;&#45;1</title>
<path fill="none" stroke="black" d="M212.91,-126.22C217.15,-138.39 222.75,-155.35 226.69,-170.55 255.58,-282.06 276.39,-417.87 284.63,-475.96"/>
<polygon fill="black" stroke="black" points="281.17,-476.46 286.02,-485.88 288.1,-475.49 281.17,-476.46"/>
<text text-anchor="middle" x="248.69" y="-284.35" font-family="Helvetica,Arial,sans-serif" font-size="14.00">1</text>
</g>
<!-- 10&#45;&gt;&#45;1 -->
<g id="edge45" class="edge">
<title>10&#45;&gt;&#45;1</title>
<path fill="none" stroke="black" d="M217.11,-60.4C220.6,-67.16 224.24,-75.03 226.69,-82.55 273.08,-224.89 284.77,-405.62 287.64,-475.31"/>
<polygon fill="black" stroke="black" points="284.15,-475.66 288.03,-485.52 291.14,-475.4 284.15,-475.66"/>
<text text-anchor="middle" x="248.69" y="-176.35" font-family="Helvetica,Arial,sans-serif" font-size="14.00">3</text>
</g>
<!-- 2&#45;&gt;&#45;1 -->
<g id="edge53" class="edge">
<title>2&#45;&gt;&#45;1</title>
<path fill="none" stroke="black" d="M218.94,-577.86C232.05,-564.05 253.23,-541.74 268.78,-525.36"/>
<polygon fill="black" stroke="black" points="271.56,-527.52 275.91,-517.86 266.48,-522.7 271.56,-527.52"/>
<text text-anchor="middle" x="248.69" y="-554.35" font-family="Helvetica,Arial,sans-serif" font-size="14.00">2</text>
</g>
<!-- 1&#45;&gt;&#45;1 -->
<g id="edge54" class="edge">
<title>1&#45;&gt;&#45;1</title>
<path fill="none" stroke="black" d="M214.87,-649.82C228.97,-622.02 258.4,-563.97 275.49,-530.28"/>
<polygon fill="black" stroke="black" points="278.76,-531.56 280.16,-521.06 272.52,-528.4 278.76,-531.56"/>
<text text-anchor="middle" x="248.69" y="-594.35" font-family="Helvetica,Arial,sans-serif" font-size="14.00">1</text>
</g>
</g>
</svg>
